:FULLY-SPECIFIED
:FORCE-ALL-JOINTS-BE-3DOF
:DEGREES
136
root 7.83102 16.735 -26.3522 -10.326 11.3679 2.9092
lfemur -4.84243 14.6666 -19.608
ltibia 31.9845 0 0
lfoot -16.9265 -7.60671 0
ltoes 19.3522 0 0
rfemur -93.4933 -32.649 43.2
rtibia 78.1864 0 0
rfoot 6.09796 27.0602 0
rtoes -44.5717 0 0
lowerback 17.5803 -3.71064 -7.43745
upperback 5.72348 -5.95286 -0.42145
thorax -3.05575 -2.96264 4.72873
lowerneck -12.4984 -1.01705 -0.192078
upperneck 0.795344 -1.45388 2.99614
head 2.47113 -0.620166 0.902499
lclavicle 5.58629e-14 1.64614e-14 0
lhumerus -36.2317 -22.5162 90.0478
lradius 48.5054 0 0
lwrist 10.4608 0 0
lhand 12.5398 6.48878 0
lfingers 7.12502 0 0
lthumb 37.5407 32.4502 0
rclavicle 5.58629e-14 1.64614e-14 0
rhumerus -46.8426 -15.8536 -58.2438
rradius 80.3125 0 0
rwrist -10.0269 0 0
rhand -6.23319 -31.5874 0
rfingers 7.12502 0 0
rthumb 19.5063 -213.305 0
137
root 7.80019 16.7175 -26.3505 -10.0993 11.8356 2.89591
lfemur -5.37237 14.8786 -19.487
ltibia 32.4471 0 0
lfoot -17.2736 -7.28586 0
ltoes 17.843 0 0
rfemur -94.5074 -33.1678 43.5791
rtibia 82.6595 0 0
rfoot 7.63121 27.7439 0
rtoes -44.7188 0 0
lowerback 17.5606 -3.86625 -7.63292
upperback 5.66491 -6.18644 -0.497468
thorax -3.06444 -3.07578 4.79838
lowerneck -12.4824 -1.04999 -0.283019
upperneck 0.685784 -1.48739 3.15298
head 2.43443 -0.633284 0.968172
lclavicle 6.31175e-14 1.53257e-14 0
lhumerus -35.8074 -23.1481 89.8433
lradius 48.1943 0 0
lwrist 10.1744 0 0
lhand 13.1669 6.58212 0
lfingers 7.12502 0 0
lthumb 38.1383 32.4215 0
rclavicle 6.31175e-14 1.53257e-14 0
rhumerus -47.59 -16.2921 -58.9887
rradius 81.344 0 0
rwrist -9.7853 0 0
rhand -8.80511 -33.0678 0
rfingers 7.12502 0 0
rthumb 17.033 -232.11 0
138
root 7.76675 16.6989 -26.3482 -9.82582 12.3344 2.86791
lfemur -5.97514 15.0823 -19.3484
ltibia 32.9368 0 0
lfoot -17.6072 -6.93609 0
ltoes 16.3359 0 0
rfemur -95.2996 -33.5828 43.7952
rtibia 87.1292 0 0
rfoot 9.22519 28.3346 0
rtoes -44.5984 0 0
lowerback 17.4859 -4.01387 -7.80417
upperback 5.58497 -6.40569 -0.5713
thorax -3.0679 -3.18176 4.85318
lowerneck -12.4578 -1.10088 -0.371448
upperneck 0.574942 -1.54508 3.30888
head 2.39605 -0.658523 1.03201
lclavicle 6.99925e-14 1.41313e-14 0
lhumerus -35.4257 -23.785 89.6868
lradius 47.8905 0 0
lwrist 9.90535 0 0
lhand 13.8237 6.71498 0
lfingers 7.12502 0 0
lthumb 38.7627 32.4153 0
rclavicle 6.99925e-14 1.41313e-14 0
rhumerus -48.3314 -16.6934 -59.7896
rradius 82.3272 0 0
rwrist -9.50613 0 0
rhand -11.4679 -34.5491 0
rfingers 7.12502 0 0
rthumb 14.4725 -250.923 0
139
root 7.73056 16.6792 -26.3451 -9.50746 12.8679 2.82782
lfemur -6.64563 15.2934 -19.1964
ltibia 33.4506 0 0
lfoot -17.9189 -6.55146 0
ltoes 14.8413 0 0
rfemur -95.8508 -33.8887 43.8427
rtibia 91.5323 0 0
rfoot 10.8497 28.8011 0
rtoes -44.1994 0 0
lowerback 17.3561 -4.15509 -7.9499
upperback 5.4847 -6.61254 -0.644407
thorax -3.06549 -3.28159 4.89065
lowerneck -12.4241 -1.17052 -0.458419
upperneck 0.46515 -1.628 3.46449
head 2.35689 -0.696376 1.09431
lclavicle 7.63675e-14 1.28937e-14 0
lhumerus -35.0922 -24.4356 89.5911
lradius 47.5991 0 0
lwrist 9.65669 0 0
lhand 14.5178 6.89601 0
lfingers 7.12502 0 0
lthumb 39.4206 32.435 0
rclavicle 7.63675e-14 1.28937e-14 0
rhumerus -49.0617 -17.0614 -60.6434
rradius 83.2715 0 0
rwrist -9.19676 0 0
rhand -14.2035 -36.0344 0
rfingers 7.12502 0 0
rthumb 11.8421 -269.747 0
140
root 7.69149 16.6582 -26.3406 -9.14607 13.44 2.77825
lfemur -7.37871 15.5276 -19.0348
ltibia 33.9857 0 0
lfoot -18.2001 -6.12601 0
ltoes 13.3696 0 0
rfemur -96.1419 -34.0803 43.7162
rtibia 95.8058 0 0
rfoot 12.4746 29.1121 0
rtoes -43.5111 0 0
lowerback 17.1713 -4.29151 -8.06882
upperback 5.36518 -6.8089 -0.718253
thorax -3.05653 -3.37628 4.90831
lowerneck -12.3809 -1.25969 -0.544986
upperneck 0.358743 -1.7372 3.62043
head 2.31788 -0.747339 1.15533
lclavicle 8.21219e-14 1.16286e-14 0
lhumerus -34.8126 -25.1091 89.5691
lradius 47.3248 0 0
lwrist 9.43141 0 0
lhand 15.257 7.13383 0
lfingers 7.12502 0 0
lthumb 40.119 32.484 0
rclavicle 8.21219e-14 1.16286e-14 0
rhumerus -49.7758 -17.4001 -61.5467
rradius 84.1862 0 0
rwrist -8.86456 0 0
rhand -16.9939 -37.5269 0
rfingers 7.12502 0 0
rthumb 9.15899 -288.581 0
141
root 7.64938 16.6358 -26.3342 -8.74351 14.0543 2.72182
lfemur -8.1693 15.8006 -18.8677
ltibia 34.5392 0 0
lfoot -18.4421 -5.65378 0
ltoes 11.9314 0 0
rfemur -96.1539 -34.1524 43.4099
rtibia 99.8864 0 0
rfoot 14.0697 29.2363 0
rtoes -42.5225 0 0
lowerback 16.9315 -4.42472 -8.15963
upperback 5.22744 -6.99671 -0.794297
thorax -3.04036 -3.46684 4.90368
lowerneck -12.3279 -1.36917 -0.632203
upperneck 0.258052 -1.87374 3.77731
head 2.27993 -0.811905 1.21537
lclavicle 8.71349e-14 1.03515e-14 0
lhumerus -34.5926 -25.8145 89.6337
lradius 47.0726 0 0
lwrist 9.23252 0 0
lhand 16.0491 7.43707 0
lfingers 7.12502 0 0
lthumb 40.8648 32.5656 0
rclavicle 8.71349e-14 1.03515e-14 0
rhumerus -50.4686 -17.7134 -62.4962
rradius 85.0807 0 0
rwrist -8.51691 0 0
rhand -19.8211 -39.0298 0
rfingers 7.12502 0 0
rthumb 6.44057 -307.427 0
